<svg xmlns="http://www.w3.org/2000/svg" width="900" height="560" viewBox="0 0 900 560">
<rect width="900" height="560" fill="#ffffff"/>
<rect x="90.00" y="60.00" width="560.00" height="420.00" fill="#fcfcfc" stroke="#999" stroke-width="1.2" opacity="1.0"/>
<line x1="90.00" y1="480.00" x2="650.00" y2="480.00" stroke="#e2e2e2" stroke-width="1.0" opacity="1.0"/>
<text x="80.0" y="484.0" font-family="sans-serif" font-size="12" fill="#555" text-anchor="end" font-weight="normal">4.58</text>
<line x1="90.00" y1="410.00" x2="650.00" y2="410.00" stroke="#e2e2e2" stroke-width="1.0" opacity="1.0"/>
<text x="80.0" y="414.0" font-family="sans-serif" font-size="12" fill="#555" text-anchor="end" font-weight="normal">5.32</text>
<line x1="90.00" y1="340.00" x2="650.00" y2="340.00" stroke="#e2e2e2" stroke-width="1.0" opacity="1.0"/>
<text x="80.0" y="344.0" font-family="sans-serif" font-size="12" fill="#555" text-anchor="end" font-weight="normal">6.05</text>
<line x1="90.00" y1="270.00" x2="650.00" y2="270.00" stroke="#e2e2e2" stroke-width="1.0" opacity="1.0"/>
<text x="80.0" y="274.0" font-family="sans-serif" font-size="12" fill="#555" text-anchor="end" font-weight="normal">6.79</text>
<line x1="90.00" y1="200.00" x2="650.00" y2="200.00" stroke="#e2e2e2" stroke-width="1.0" opacity="1.0"/>
<text x="80.0" y="204.0" font-family="sans-serif" font-size="12" fill="#555" text-anchor="end" font-weight="normal">7.53</text>
<line x1="90.00" y1="130.00" x2="650.00" y2="130.00" stroke="#e2e2e2" stroke-width="1.0" opacity="1.0"/>
<text x="80.0" y="134.0" font-family="sans-serif" font-size="12" fill="#555" text-anchor="end" font-weight="normal">8.27</text>
<line x1="90.00" y1="60.00" x2="650.00" y2="60.00" stroke="#e2e2e2" stroke-width="1.0" opacity="1.0"/>
<text x="80.0" y="64.0" font-family="sans-serif" font-size="12" fill="#555" text-anchor="end" font-weight="normal">9.01</text>
<line x1="90.00" y1="480.00" x2="90.00" y2="485.00" stroke="#999" stroke-width="1.2" opacity="1.0"/>
<text x="90.0" y="502.0" font-family="sans-serif" font-size="12" fill="#555" text-anchor="middle" font-weight="normal">1</text>
<line x1="119.47" y1="480.00" x2="119.47" y2="485.00" stroke="#999" stroke-width="1.2" opacity="1.0"/>
<text x="119.5" y="502.0" font-family="sans-serif" font-size="12" fill="#555" text-anchor="middle" font-weight="normal">2</text>
<line x1="148.95" y1="480.00" x2="148.95" y2="485.00" stroke="#999" stroke-width="1.2" opacity="1.0"/>
<text x="148.9" y="502.0" font-family="sans-serif" font-size="12" fill="#555" text-anchor="middle" font-weight="normal">3</text>
<line x1="207.89" y1="480.00" x2="207.89" y2="485.00" stroke="#999" stroke-width="1.2" opacity="1.0"/>
<text x="207.9" y="502.0" font-family="sans-serif" font-size="12" fill="#555" text-anchor="middle" font-weight="normal">5</text>
<line x1="355.26" y1="480.00" x2="355.26" y2="485.00" stroke="#999" stroke-width="1.2" opacity="1.0"/>
<text x="355.3" y="502.0" font-family="sans-serif" font-size="12" fill="#555" text-anchor="middle" font-weight="normal">10</text>
<line x1="650.00" y1="480.00" x2="650.00" y2="485.00" stroke="#999" stroke-width="1.2" opacity="1.0"/>
<text x="650.0" y="502.0" font-family="sans-serif" font-size="12" fill="#555" text-anchor="middle" font-weight="normal">20</text>
<text x="450.0" y="28.0" font-family="sans-serif" font-size="18" fill="#222" text-anchor="middle" font-weight="bold">图 2  迭代次数消融：迭代次数对精度没有影响</text>
<text x="370.0" y="534.0" font-family="sans-serif" font-size="14" fill="#222" text-anchor="middle" font-weight="normal">Gauss-Newton 迭代次数</text>
<text x="20.0" y="270.0" font-family="sans-serif" font-size="14" fill="#222" text-anchor="middle" font-weight="normal" transform="rotate(-90 20 270.0)">二维水平平均误差 (m)</text>
<polyline points="90.00,97.00 119.47,97.00 148.95,97.00 207.89,97.00 355.26,97.00 650.00,97.00" fill="none" stroke="#1f77b4" stroke-width="2.4" opacity="1.0" stroke-linejoin="round"/>
<circle cx="90.00" cy="97.00" r="3.60" fill="#1f77b4" stroke="none" stroke-width="1.0"/>
<circle cx="119.47" cy="97.00" r="3.60" fill="#1f77b4" stroke="none" stroke-width="1.0"/>
<circle cx="148.95" cy="97.00" r="3.60" fill="#1f77b4" stroke="none" stroke-width="1.0"/>
<circle cx="207.89" cy="97.00" r="3.60" fill="#1f77b4" stroke="none" stroke-width="1.0"/>
<circle cx="355.26" cy="97.00" r="3.60" fill="#1f77b4" stroke="none" stroke-width="1.0"/>
<circle cx="650.00" cy="97.00" r="3.60" fill="#1f77b4" stroke="none" stroke-width="1.0"/>
<polyline points="90.00,271.72 119.47,271.72 148.95,271.72 207.89,271.72 355.26,271.72 650.00,271.72" fill="none" stroke="#d62728" stroke-width="2.4" opacity="1.0" stroke-linejoin="round"/>
<circle cx="90.00" cy="271.72" r="3.60" fill="#d62728" stroke="none" stroke-width="1.0"/>
<circle cx="119.47" cy="271.72" r="3.60" fill="#d62728" stroke="none" stroke-width="1.0"/>
<circle cx="148.95" cy="271.72" r="3.60" fill="#d62728" stroke="none" stroke-width="1.0"/>
<circle cx="207.89" cy="271.72" r="3.60" fill="#d62728" stroke="none" stroke-width="1.0"/>
<circle cx="355.26" cy="271.72" r="3.60" fill="#d62728" stroke="none" stroke-width="1.0"/>
<circle cx="650.00" cy="271.72" r="3.60" fill="#d62728" stroke="none" stroke-width="1.0"/>
<polyline points="90.00,409.91 119.47,409.91 148.95,409.91 207.89,409.91 355.26,409.91 650.00,409.91" fill="none" stroke="#2ca02c" stroke-width="2.4" opacity="1.0" stroke-linejoin="round"/>
<circle cx="90.00" cy="409.91" r="3.60" fill="#2ca02c" stroke="none" stroke-width="1.0"/>
<circle cx="119.47" cy="409.91" r="3.60" fill="#2ca02c" stroke="none" stroke-width="1.0"/>
<circle cx="148.95" cy="409.91" r="3.60" fill="#2ca02c" stroke="none" stroke-width="1.0"/>
<circle cx="207.89" cy="409.91" r="3.60" fill="#2ca02c" stroke="none" stroke-width="1.0"/>
<circle cx="355.26" cy="409.91" r="3.60" fill="#2ca02c" stroke="none" stroke-width="1.0"/>
<circle cx="650.00" cy="409.91" r="3.60" fill="#2ca02c" stroke="none" stroke-width="1.0"/>
<polyline points="90.00,467.05 119.47,467.05 148.95,467.05 207.89,467.05 355.26,467.05 650.00,467.05" fill="none" stroke="#ff7f0e" stroke-width="2.4" opacity="1.0" stroke-linejoin="round"/>
<circle cx="90.00" cy="467.05" r="3.60" fill="#ff7f0e" stroke="none" stroke-width="1.0"/>
<circle cx="119.47" cy="467.05" r="3.60" fill="#ff7f0e" stroke="none" stroke-width="1.0"/>
<circle cx="148.95" cy="467.05" r="3.60" fill="#ff7f0e" stroke="none" stroke-width="1.0"/>
<circle cx="207.89" cy="467.05" r="3.60" fill="#ff7f0e" stroke="none" stroke-width="1.0"/>
<circle cx="355.26" cy="467.05" r="3.60" fill="#ff7f0e" stroke="none" stroke-width="1.0"/>
<circle cx="650.00" cy="467.05" r="3.60" fill="#ff7f0e" stroke="none" stroke-width="1.0"/>
<rect x="662.00" y="56.00" width="230.00" height="130.00" fill="#ffffff" stroke="#ccc" stroke-width="1.0" opacity="1.0"/>
<line x1="668.00" y1="70.00" x2="698.00" y2="70.00" stroke="#1f77b4" stroke-width="2.6" opacity="1.0"/>
<circle cx="683.00" cy="70.00" r="3.60" fill="#1f77b4" stroke="none" stroke-width="1.0"/>
<text x="706.0" y="74.0" font-family="sans-serif" font-size="12.5" fill="#222" text-anchor="start" font-weight="normal">窗口 K=2</text>
<line x1="668.00" y1="94.00" x2="698.00" y2="94.00" stroke="#d62728" stroke-width="2.6" opacity="1.0"/>
<circle cx="683.00" cy="94.00" r="3.60" fill="#d62728" stroke="none" stroke-width="1.0"/>
<text x="706.0" y="98.0" font-family="sans-serif" font-size="12.5" fill="#222" text-anchor="start" font-weight="normal">窗口 K=5</text>
<line x1="668.00" y1="118.00" x2="698.00" y2="118.00" stroke="#2ca02c" stroke-width="2.6" opacity="1.0"/>
<circle cx="683.00" cy="118.00" r="3.60" fill="#2ca02c" stroke="none" stroke-width="1.0"/>
<text x="706.0" y="122.0" font-family="sans-serif" font-size="12.5" fill="#222" text-anchor="start" font-weight="normal">窗口 K=10</text>
<line x1="668.00" y1="142.00" x2="698.00" y2="142.00" stroke="#ff7f0e" stroke-width="2.6" opacity="1.0"/>
<circle cx="683.00" cy="142.00" r="3.60" fill="#ff7f0e" stroke="none" stroke-width="1.0"/>
<text x="706.0" y="146.0" font-family="sans-serif" font-size="12.5" fill="#222" text-anchor="start" font-weight="normal">窗口 K=30</text>
</svg>
